<?xml version="1.0" encoding="UTF-8"?>
<svg id="Layer_2" xmlns="http://www.w3.org/2000/svg" viewBox="0 0 466.43 132.51">
  <defs>
    <style>
      .cls-1 {
        fill: #63cae1;
      }

      .cls-2 {
        fill: #00aeef;
      }

      .cls-3 {
        fill: #205ea7;
      }

      .cls-4 {
        fill: #fff200;
      }
    </style>
  </defs>
  <g id="Layer_1-2" data-name="Layer_1">
    <g>
      <path class="cls-2" d="M466.43,55.02c0,30.39-24.63,55.02-55.02,55.02s-55.02-24.63-55.02-55.02S381.03,0,411.41,0s55.02,24.63,55.02,55.02"/>
      <path class="cls-4" d="M436.3,25c0,6.33-5.13,11.46-11.46,11.46s-11.46-5.13-11.46-11.46,5.13-11.46,11.46-11.46,11.46,5.13,11.46,11.46"/>
      <path class="cls-3" d="M67.55,65.92v-.24c0-18.51,15.14-34.01,35.94-34.01s35.82,15.26,35.82,33.78v.24c0,18.51-15.14,34.01-36.06,34.01s-35.7-15.27-35.7-33.78M117.19,65.92v-.24c0-8.05-5.89-14.79-13.94-14.79s-13.58,6.61-13.58,14.55v.24c0,7.93,5.77,14.66,13.82,14.66s13.7-6.61,13.7-14.42"/>
      <rect class="cls-3" x="142.55" y="13.34" width="22.72" height="84.8"/>
      <path class="cls-3" d="M167.65,65.92v-.24c0-18.99,13.58-34.01,32.81-34.01,22.36,0,32.69,16.47,32.69,35.58,0,1.44,0,3.12-.12,4.69h-43.51c1.8,7.09,6.97,10.7,14.06,10.7,8.86,0,21.37-3.17,26.06-7.73l.26,16.48c-7.58,6.39-15.58,8.33-27.39,8.33-20.43,0-34.86-13.7-34.86-33.78M211.88,60.27c-.84-7.21-5.17-11.78-11.42-11.78s-10.1,4.57-11.3,11.78h22.72Z"/>
      <path class="cls-3" d="M236.26,33.11h22.84v5.21c5.46-4.43,10.22-6.65,19.47-6.65,13.82,0,22.12,9.14,22.12,23.92v42.55h-22.72v-35.22c0-7.21-3.73-11.06-9.25-11.06s-9.61,3.85-9.61,11.06v35.22h-22.84V33.11Z"/>
      <path class="cls-3" d="M310.31,77.94v-26.56h-7.69v-18.27h7.69v-16.47h22.72v16.47h15.15v18.27h-15.15v20.77c0,4.57,2.04,6.49,6.25,6.49,3,0,8.54-.15,11.6-.15l-8.19,19.64h-10.62c-13.7,0-21.75-4.69-21.75-20.19"/>
      <path class="cls-3" d="M38.22,45.73c-11.78-2.64-14.66-4.33-14.66-8.17v-.24c0-3.12,2.76-5.41,8.41-5.41,10.59,0,23.49,6.38,31.24,11.83v-22.88c-8.37-5.45-18.35-8.3-30.64-8.3C12.38,12.56,0,23.86,0,39.48v.24c0,17.19,13.82,22.23,31.73,26.32,11.54,2.77,14.3,4.57,14.3,8.17v.24c0,3.61-3.36,5.77-9.74,5.77-9.56,0-24.37-5.34-32.92-11.88l-.19,22.56c9.63,6.39,19.91,8.67,32.28,8.67,20.43,0,34.01-10.22,34.01-27.41v-.24c0-15.74-12.02-21.99-31.25-26.2"/>
      <path class="cls-1" d="M420.63,62.32c-6.62,0-9.97-1.05-13.21-2.06-3.1-.97-6.03-1.89-12.05-1.89s-8.94.92-12.04,1.89c-3.24,1.02-6.6,2.06-13.21,2.06s-9.97-1.05-13.21-2.06c-3.1-.97-6.03-1.89-12.04-1.89s-8.94.92-12.04,1.89c-3.24,1.02-6.6,2.06-13.21,2.06s-9.97-1.05-13.21-2.06c-3.1-.97-6.03-1.89-12.05-1.89s-8.94.92-12.04,1.89c-3.24,1.02-6.6,2.06-13.21,2.06s-9.97-1.05-13.21-2.06c-3.1-.97-6.03-1.89-12.04-1.89v-3.92c6.61,0,9.97,1.05,13.21,2.06,3.1.97,6.03,1.89,12.04,1.89s8.94-.92,12.04-1.89c3.24-1.02,6.6-2.06,13.21-2.06s9.97,1.05,13.21,2.06c3.1.97,6.03,1.89,12.04,1.89s8.94-.92,12.04-1.89c3.24-1.02,6.6-2.06,13.21-2.06s9.97,1.05,13.21,2.06c3.1.97,6.03,1.89,12.04,1.89s8.94-.92,12.04-1.89c3.24-1.02,6.6-2.06,13.21-2.06s9.97,1.05,13.22,2.06c3.1.97,6.03,1.89,12.04,1.89s8.94-.92,12.05-1.89c3.24-1.02,6.6-2.06,13.21-2.06v3.92c-6.02,0-8.94.92-12.05,1.89-3.24,1.02-6.6,2.06-13.21,2.06"/>
      <path class="cls-1" d="M420.63,70.17c-6.62,0-9.97-1.05-13.21-2.06-3.1-.97-6.03-1.89-12.05-1.89s-8.94.92-12.04,1.89c-3.24,1.02-6.6,2.06-13.21,2.06s-9.97-1.05-13.21-2.06c-3.1-.97-6.03-1.89-12.04-1.89s-8.94.92-12.04,1.89c-3.24,1.02-6.6,2.06-13.21,2.06s-9.97-1.05-13.21-2.06c-3.1-.97-6.03-1.89-12.05-1.89s-8.94.92-12.04,1.89c-3.24,1.02-6.6,2.06-13.21,2.06s-9.97-1.05-13.21-2.06c-3.1-.97-6.03-1.89-12.04-1.89v-3.92c6.61,0,9.97,1.05,13.21,2.06,3.1.97,6.03,1.89,12.04,1.89s8.94-.92,12.04-1.89c3.24-1.02,6.6-2.06,13.21-2.06s9.97,1.05,13.21,2.06c3.1.97,6.03,1.89,12.04,1.89s8.94-.92,12.04-1.89c3.24-1.02,6.6-2.06,13.21-2.06s9.97,1.05,13.21,2.06c3.1.97,6.03,1.89,12.04,1.89s8.94-.92,12.04-1.89c3.24-1.02,6.6-2.06,13.21-2.06s9.97,1.05,13.22,2.06c3.1.97,6.03,1.89,12.04,1.89s8.94-.92,12.05-1.89c3.24-1.02,6.6-2.06,13.21-2.06v3.92c-6.02,0-8.94.92-12.05,1.89-3.24,1.02-6.6,2.06-13.21,2.06"/>
      <path class="cls-1" d="M420.63,78.02c-6.62,0-9.97-1.05-13.21-2.06-3.1-.97-6.03-1.89-12.05-1.89s-8.94.92-12.04,1.89c-3.24,1.02-6.6,2.06-13.21,2.06s-9.97-1.05-13.21-2.06c-3.1-.97-6.03-1.89-12.04-1.89s-8.94.92-12.04,1.89c-3.24,1.02-6.6,2.06-13.21,2.06s-9.97-1.05-13.21-2.06c-3.1-.97-6.03-1.89-12.05-1.89s-8.94.92-12.04,1.89c-3.24,1.02-6.6,2.06-13.21,2.06s-9.97-1.05-13.21-2.06c-3.1-.97-6.03-1.89-12.04-1.89v-3.92c6.61,0,9.97,1.05,13.21,2.06,3.1.97,6.03,1.89,12.04,1.89s8.94-.92,12.04-1.89c3.24-1.02,6.6-2.06,13.21-2.06s9.97,1.05,13.21,2.06c3.1.97,6.03,1.89,12.04,1.89s8.94-.92,12.04-1.89c3.24-1.02,6.6-2.06,13.21-2.06s9.97,1.05,13.21,2.06c3.1.97,6.03,1.89,12.04,1.89s8.94-.92,12.04-1.89c3.24-1.02,6.6-2.06,13.21-2.06s9.97,1.05,13.22,2.06c3.1.97,6.03,1.89,12.04,1.89s8.94-.92,12.05-1.89c3.24-1.02,6.6-2.06,13.21-2.06v3.92c-6.02,0-8.94.92-12.05,1.89-3.24,1.02-6.6,2.06-13.21,2.06"/>
      <g>
        <g>
          <path class="cls-3" d="M285.2,114.08h-1.51c-1.05,0-1.81.2-2.38.62-.78.57-1.18,1.56-1.18,2.95v1.34h-1.95v1.94h1.95v8.59h1.98v-8.59h3.15v-1.94h-3.15v-1.34c0-1.35.63-1.63,1.58-1.63h1.56v-1.94h-.05Z"/>
          <g>
            <path class="cls-3" d="M286.88,118.98h-.05v10.53h1.98v-10.53h-1.93Z"/>
            <path class="cls-3" d="M287.82,113.89c-.75,0-1.36.63-1.36,1.4s.61,1.4,1.36,1.4,1.36-.63,1.36-1.4-.61-1.4-1.36-1.4Z"/>
          </g>
          <path class="cls-3" d="M298.49,119.43c-.98-.56-1.72-.93-3.01-.93-.64,0-1.22.22-1.79.43-.5.19-.97.36-1.42.36-.23,0-.54-.2-.76-.36l-.43-.31-.04-.03-.03.04-1.09,1.58-.03.05.05.03.26.15c.76.45,1.35.88,1.35,2v7.06h1.98v-7.06c0-.53-.06-.99-.19-1.41.21-.07.41-.14.61-.22.52-.2,1.02-.38,1.54-.38.88,0,1.43.29,2.1.71l.04.03.02-.05.86-1.62.02-.04-.04-.02Z"/>
          <path class="cls-3" d="M303.17,120.36c1.21,0,2.44.44,3.3,1.18l.04.03.03-.04,1.14-1.41.03-.04-.04-.03c-1.23-.98-2.87-1.55-4.49-1.55-1.08,0-2.06.27-2.76.75-.81.57-1.24,1.43-1.24,2.49s.48,1.81,1.44,2.35c.69.4,1.65.66,2.63.71,1.65.08,2.41.57,2.41,1.53,0,.46-.22.88-.61,1.18-.43.32-1.03.5-1.74.5-1.37,0-2.15-.36-3.48-1.59l-.04-.03-.03.04-1.15,1.36-.03.04.04.03c1.59,1.46,2.87,2,4.7,2,1.08,0,2.14-.31,2.91-.85.92-.64,1.4-1.57,1.4-2.68s-.47-2.02-1.41-2.59c-.89-.55-2.03-.71-2.82-.75-.33-.01-.95-.07-1.45-.28-.53-.22-.79-.55-.79-.97,0-1.21,1.27-1.4,2.03-1.4Z"/>
          <path class="cls-3" d="M329.94,120.32c-.98-1.16-2.36-1.77-4-1.77-.95,0-1.86.26-2.64.76v-5.23h-1.98v11.92c0,.93-.33,1.23-.8,1.56l-.77.54-.04.03.03.04,1.09,1.56.03.04.04-.03.41-.29c.21-.14.7-.3,1.06-.3.43,0,.9.14,1.41.3.62.19,1.32.4,2.08.4,1.68,0,3.08-.61,4.07-1.76.87-1.02,1.35-2.4,1.35-3.88s-.48-2.86-1.35-3.9ZM323.3,125.98v-4.5c.62-.64,1.55-1,2.55-1,2.38,0,3.46,1.92,3.46,3.71,0,.99-.31,1.91-.87,2.59-.63.77-1.52,1.18-2.58,1.18-.54,0-1.06-.15-1.62-.31-.36-.1-.73-.21-1.12-.28.11-.38.17-.89.17-1.39Z"/>
          <path class="cls-3" d="M347.09,120.36c1.21,0,2.44.44,3.3,1.18l.04.03.03-.04,1.14-1.41.03-.04-.04-.03c-1.23-.98-2.87-1.55-4.49-1.55-1.08,0-2.06.27-2.76.75-.81.57-1.24,1.43-1.24,2.49s.48,1.81,1.44,2.35c.69.4,1.65.66,2.63.71,1.65.08,2.41.57,2.41,1.53,0,.46-.22.88-.61,1.18-.43.32-1.03.5-1.74.5-1.37,0-2.15-.36-3.48-1.59l-.04-.03-.03.04-1.15,1.36-.03.04.04.03c1.59,1.46,2.87,2,4.7,2,1.08,0,2.14-.31,2.91-.85.92-.64,1.4-1.57,1.4-2.68s-.47-2.02-1.41-2.59c-.89-.55-2.03-.71-2.82-.75-.33-.01-.95-.07-1.45-.28-.53-.22-.79-.55-.79-.97,0-1.21,1.27-1.4,2.03-1.4Z"/>
          <path class="cls-3" d="M273.62,120.84c-.11-3-1.36-5.77-3.5-7.81-2.15-2.04-4.93-3.1-7.85-2.99-6.03.24-10.74,5.48-10.51,11.67,0,0,0,0,0,0-1.87.65-3.72,1.42-5.5,2.29l-.19.09.82,1.78.19-.09c1.6-.78,3.25-1.48,4.93-2.08.46,2.15,1.53,4.12,3.11,5.68,2.05,2.02,4.74,3.14,7.57,3.14.14,0,.29,0,.43,0,2.92-.12,5.62-1.39,7.61-3.6,1.98-2.2,3.02-5.07,2.9-8.07ZM262.34,112c.12,0,.24,0,.35,0,.93,0,1.85.15,2.72.43-1.22,1.38-2.3,2.89-3.21,4.51-.31.54-.6,1.1-.87,1.66-.14.3-.28.59-.41.89-1.88.27-3.74.64-5.57,1.13-.56.15-1.12.31-1.68.48.09-4.87,3.88-8.9,8.67-9.09ZM258.62,129.55c-.79-.41-1.53-.95-2.18-1.59-1.35-1.33-2.25-3.02-2.6-4.87.66-.21,1.32-.4,1.98-.57,1.41-.37,2.83-.68,4.27-.92-.88,2.56-1.38,5.23-1.47,7.95ZM269.31,127.57c-1.64,1.82-3.87,2.87-6.28,2.97-.12,0-.23,0-.35,0-.74,0-1.46-.09-2.16-.27.03-3.1.61-6.11,1.73-8.99,1.7-.2,3.41-.31,5.13-.33h.21v-1.97h-.21c-1.41.02-2.81.09-4.21.23.22-.44.45-.87.69-1.29.96-1.69,2.1-3.25,3.41-4.65.6.36,1.16.8,1.68,1.31,1.7,1.67,2.68,3.92,2.77,6.33.09,2.48-.76,4.84-2.39,6.66Z"/>
          <path class="cls-3" d="M339.76,118.98v6.33c0,.91-.24,1.61-.7,2.07-.47.46-1.13.7-1.98.7s-1.49-.23-1.96-.7c-.47-.46-.7-1.16-.7-2.07v-6.33h-1.98v6.29c0,.99.21,1.84.62,2.53.41.69.97,1.21,1.67,1.55.7.34,1.48.51,2.34.51s1.64-.17,2.34-.51c.7-.34,1.28-.86,1.7-1.55.42-.69.63-1.54.63-2.53v-6.29h-1.98Z"/>
          <path class="cls-3" d="M315.23,118.98h-2.56v-4.9h-1.98v3.04q0,1.86-1.79,1.86h-.14v1.94h1.93v5.02c0,1.39.4,2.38,1.18,2.95.58.42,1.33.62,2.38.62h1.03v-1.94h-1.03c-.95,0-1.58-.28-1.58-1.63v-5.02h2.61v-1.94h-.05Z"/>
        </g>
        <g>
          <path class="cls-3" d="M194.71,120.1h-2.05v-1.9h2.05v-1.44c0-3.18,2.01-3.64,3.68-3.64h.73v1.9h-.73c-.96,0-1.71.26-1.71,1.74v1.44h2.44v1.9h-2.44v8.91h-1.97v-8.91Z"/>
          <path class="cls-3" d="M200.77,119.62l-.28-.16,1.14-1.64.45.32c.29.2.59.38.83.38,1.02,0,2.11-.82,3.37-.82,1.34,0,2.11.38,3.13.96l-.91,1.68c-.69-.42-1.28-.74-2.22-.74-.79,0-1.54.4-2.32.64.14.42.22.9.22,1.5v7.26h-1.97v-7.26c0-1.18-.61-1.64-1.44-2.12Z"/>
          <path class="cls-3" d="M209.26,123.56c0-3.18,2.48-5.84,5.59-5.84s5.61,2.66,5.61,5.84-2.48,5.82-5.61,5.82-5.59-2.64-5.59-5.82ZM214.85,127.49c1.99,0,3.64-1.78,3.64-3.92s-1.65-3.94-3.64-3.94-3.62,1.8-3.62,3.94,1.65,3.92,3.62,3.92Z"/>
          <path class="cls-3" d="M221.67,119.78l-.47-.3,1.14-1.64.49.34c.25.17.53.28.77.28.75,0,1.5-.72,2.91-.72,1.85,0,2.52.72,3.13.72.85,0,1.67-.7,3.29-.7,2.4,0,4.51,1.58,4.51,4.46v6.78h-1.97v-6.88c0-1.84-1.4-2.52-2.74-2.52-.79,0-1.63.48-2.01.6.3.6.41,1.28.41,2.02v6.78h-1.97v-6.88c0-1.8-1.34-2.52-2.66-2.52-.71,0-1.54.44-1.89.58.16.44.24.92.24,1.56v7.26h-1.97v-7.26c0-1.06-.52-1.52-1.22-1.96Z"/>
        </g>
      </g>
    </g>
  </g>
</svg>